# Blender v2.77 (sub 0) OBJ File: ''
# www.blender.org
o Cube_Cube.002
v -0.034556 0.103231 0.034556
v -0.034556 0.203140 0.034556
v -0.034556 0.103231 -0.034556
v -0.034556 0.203140 -0.034556
v 0.034556 0.103231 0.034556
v 0.034556 0.203140 0.034556
v 0.034556 0.103231 -0.034556
v 0.034556 0.203140 -0.034556
vt 1.0000 0.0000
vt 0.0000 1.0000
vt 0.0000 0.0000
vt 1.0000 0.0000
vt 0.0000 1.0000
vt 0.0000 0.0000
vt 1.0000 0.0000
vt 0.0000 1.0000
vt 0.0000 0.0000
vt 1.0000 0.0000
vt 0.0000 1.0000
vt 0.0000 0.0000
vt 1.0000 0.0000
vt 0.0000 0.0000
vt 0.0000 1.0000
vt 1.0000 1.0000
vt 1.0000 1.0000
vt 1.0000 1.0000
vt 1.0000 1.0000
vt 1.0000 1.0000
vn -1.0000 0.0000 0.0000
vn 0.0000 0.0000 -1.0000
vn 1.0000 0.0000 0.0000
vn 0.0000 0.0000 1.0000
vn 0.0000 -1.0000 0.0000
vn 0.0000 1.0000 0.0000
s off
f 4/1/1 1/2/1 2/3/1
f 8/4/2 3/5/2 4/6/2
f 6/7/3 7/8/3 8/9/3
f 2/10/4 5/11/4 6/12/4
f 3/13/5 5/11/5 1/14/5
f 8/4/6 2/15/6 6/12/6
f 4/1/1 3/16/1 1/2/1
f 8/4/2 7/17/2 3/5/2
f 6/7/3 5/18/3 7/8/3
f 2/10/4 1/19/4 5/11/4
f 3/13/5 7/17/5 5/11/5
f 8/4/6 4/20/6 2/15/6
o Circle
v 0.000000 0.000000 -0.577350
v -0.500000 0.000000 -0.288675
v -0.500000 0.000000 0.288675
v 0.000000 0.000000 0.577350
v 0.500002 0.000000 0.288675
v 0.500000 0.000000 -0.288675
v 0.000000 -1.487912 -0.577350
v -0.500000 -1.487912 -0.288675
v -0.500000 -1.487912 0.288675
v 0.000000 -1.487912 0.577350
v 0.500000 -1.487912 0.288675
v 0.500000 -1.487912 -0.288675
vt 0.3880 0.5551
vt 0.4162 0.4292
vt 0.4836 0.4458
vt 0.4367 0.9999
vt 0.8745 0.7474
vt 0.3730 0.4855
vt 0.0002 0.2495
vt 0.4559 0.5689
vt 0.5037 0.5150
vt 0.4362 0.0001
vt 0.0001 0.7500
vt 0.8745 0.2529
vn 0.0000 1.0000 0.0000
vn 0.5000 0.0000 -0.8660
vn 0.5000 -0.0000 0.8660
vn -1.0000 0.0000 0.0000
vn 1.0000 -0.0000 -0.0000
vn -0.5000 0.0000 0.8660
vn -0.5000 0.0000 -0.8660
s off
f 12/21/7 14/22/7 9/23/7
f 20/24/8 9/23/8 14/22/8
f 12/21/9 19/25/9 13/26/9
f 16/27/10 11/28/10 10/29/10
f 19/25/11 14/22/11 13/26/11
f 17/30/12 12/21/12 11/28/12
f 15/31/13 10/29/13 9/23/13
f 9/23/7 10/29/7 11/28/7
f 11/28/7 12/21/7 9/23/7
f 13/26/7 14/22/7 12/21/7
f 20/24/8 15/31/8 9/23/8
f 12/21/9 18/32/9 19/25/9
f 16/27/10 17/30/10 11/28/10
f 19/25/11 20/24/11 14/22/11
f 17/30/12 18/32/12 12/21/12
f 15/31/13 16/27/13 10/29/13
