# Blender v2.77 (sub 0) OBJ File: ''
# www.blender.org
o Plane
v 0.096623 0.156990 0.000000
v 0.000000 0.156990 -0.096623
v 0.000000 0.156990 0.096623
v -0.096623 0.156990 0.000000
v 0.000000 0.256990 0.000000
v 0.000000 0.256990 0.000000
v 0.000000 0.256990 0.000000
v 0.000000 0.256990 0.000000
v 0.000000 0.056990 0.000000
v 0.000000 0.056990 0.000000
v 0.000000 0.056990 0.000000
v 0.000000 0.056990 0.000000
vt 0.0000 0.0000
vt 1.0000 1.0000
vt 0.0000 1.0000
vt 0.0000 0.0000
vt 1.0000 1.0000
vt 0.0000 1.0000
vt 0.0000 0.0000
vt 1.0000 1.0000
vt 0.0000 1.0000
vt 0.0000 1.0000
vt 0.0000 0.0000
vt 1.0000 1.0000
vt 0.0000 0.0000
vt 1.0000 1.0000
vt 0.0000 1.0000
vt 0.0000 0.0000
vt 1.0000 1.0000
vt 1.0000 1.0000
vt 0.0000 1.0000
vt 1.0000 1.0000
vt 0.0000 1.0000
vt 0.0000 1.0000
vt 1.0000 0.0000
vt 1.0000 0.0000
vt 1.0000 0.0000
vt 1.0000 0.0000
vt 1.0000 0.0000
vt 1.0000 0.0000
vn 0.0000 0.0000 1.0000
vn 0.5838 -0.5641 -0.5838
vn 0.5838 0.5641 -0.5838
vn -0.5838 0.5641 -0.5838
vn 0.5838 0.5641 0.5838
vn -0.5838 0.5641 0.5838
vn -0.5838 -0.5641 -0.5838
vn 0.5838 -0.5641 0.5838
vn -0.5838 -0.5641 0.5838
s off
f 2/1/1 10/2/1 11/3/1
f 5/4/1 8/5/1 7/6/1
f 1/7/1 6/8/1 5/9/1
f 2/1/1 8/5/1 6/10/1
f 3/11/1 5/12/1 7/6/1
f 4/13/1 7/14/1 8/15/1
f 10/16/1 12/17/1 11/3/1
f 4/13/1 11/18/1 12/19/1
f 1/7/1 9/20/1 10/21/1
f 3/11/1 12/17/1 9/22/1
f 2/1/2 1/23/2 10/2/2
f 5/4/1 6/24/1 8/5/1
f 1/7/3 2/25/3 6/8/3
f 2/1/4 4/26/4 8/5/4
f 3/11/5 1/23/5 5/12/5
f 4/13/6 3/27/6 7/14/6
f 10/16/1 9/28/1 12/17/1
f 4/13/7 2/25/7 11/18/7
f 1/7/8 3/27/8 9/20/8
f 3/11/9 4/26/9 12/17/9
